# xmcd
#
# Track frame offsets: 
#        150
#        9407
#        17946
#        28875
#        36429
#        47532
#        57155
#        66964
#        75284
#        83820
#        93763
#        103737
#        113994
#        121248
#        129693
#        140601
#        152159
#        161794
#        173577
#        182787
#
# Disc length: 2556 seconds
#
# Revision: 0
# Processed by: cddbd v1.5.2PL0 Copyright (c) Steve Scherf et al.
# Submitted via: ExactAudioCopy v0.99pb5
#
DISCID=0709fa14
DTITLE=Various Artist - Rock-A-Billy CD05 - Honky Tonk Man
DYEAR=1900
DGENRE=
TTITLE0=Johnny Burnette Rock and Roll Trio  - Lonesome Tears In My Eyes
TTITLE1=Jackie Dee - Buddy
TTITLE2=Elvis Presley - Mystery Train
TTITLE3=Cheeko Vass - Bo Peep Rock
TTITLE4=Ronnie Self - Big Fool
TTITLE5=Glen Glenn - Blue Jeans And A Boys' Shirt
TTITLE6=Aubrey Cagle - Come Along Little Girl
TTITLE7=Barry Darwell - Geronimo Stomp
TTITLE8=Ritchie Heart - The Great Duane
TTITLE9=Tommy Blake - I Dig You
TTITLE10=Johnny Horton  - Honky Tonk Man
TTITLE11=Morgan Twins - TV Hop
TTITLE12=Comer Money - Rambler
TTITLE13=Bobby Martin - Dood It
TTITLE14=Bobby Lee Trammell - Uh Oh
TTITLE15=Weldon Rodgers - So Long, Good Luck And Goodbye
TTITLE16=Grant Greeves - Four On The Floor
TTITLE17=Carl Perkins  - Pink Pedal Pushers
TTITLE18=Larry Dowd - Blue Swingin' Mama
TTITLE19=Brenda Lee - Ring A My Phone
EXTD=
EXTT0=
EXTT1=
EXTT2=
EXTT3=
EXTT4=
EXTT5=
EXTT6=
EXTT7=
EXTT8=
EXTT9=
EXTT10=
EXTT11=
EXTT12=
EXTT13=
EXTT14=
EXTT15=
EXTT16=
EXTT17=
EXTT18=
EXTT19=
PLAYORDER=
